<svg xmlns="http://www.w3.org/2000/svg" xmlns:xlink="http://www.w3.org/1999/xlink" width="500" zoomAndPan="magnify" viewBox="0 0 375 374.999991" height="500" preserveAspectRatio="xMidYMid meet" version="1.0"><defs><clipPath id="b84352205c"><path d="M 41.976562 39.738281 L 337.476562 39.738281 L 337.476562 335.238281 L 41.976562 335.238281 Z M 41.976562 39.738281 " clip-rule="nonzero"/></clipPath></defs><rect x="-37.5" width="450" fill="#ffffff" y="-37.499999" height="449.999989" fill-opacity="1"/><rect x="-37.5" width="450" fill="#ffffff" y="-37.499999" height="449.999989" fill-opacity="1"/><rect x="-37.5" width="450" fill="#cb6ce6" y="-37.499999" height="449.999989" fill-opacity="1"/><g clip-path="url(#b84352205c)"><path fill="#ffffff" d="M 337.476562 187.488281 C 337.476562 189.90625 337.417969 192.324219 337.296875 194.738281 C 337.179688 197.152344 337 199.5625 336.765625 201.96875 C 336.527344 204.375 336.230469 206.777344 335.878906 209.167969 C 335.523438 211.558594 335.109375 213.941406 334.636719 216.3125 C 334.164062 218.683594 333.636719 221.042969 333.046875 223.386719 C 332.460938 225.734375 331.816406 228.0625 331.113281 230.378906 C 330.414062 232.691406 329.652344 234.988281 328.839844 237.261719 C 328.023438 239.539062 327.15625 241.796875 326.230469 244.03125 C 325.304688 246.261719 324.324219 248.472656 323.289062 250.660156 C 322.257812 252.84375 321.171875 255.003906 320.03125 257.136719 C 318.890625 259.269531 317.699219 261.371094 316.457031 263.445312 C 315.210938 265.519531 313.917969 267.5625 312.574219 269.574219 C 311.234375 271.585938 309.839844 273.558594 308.398438 275.503906 C 306.960938 277.445312 305.472656 279.351562 303.9375 281.21875 C 302.40625 283.089844 300.824219 284.917969 299.203125 286.710938 C 297.578125 288.503906 295.910156 290.253906 294.203125 291.964844 C 292.492188 293.671875 290.742188 295.339844 288.949219 296.964844 C 287.15625 298.585938 285.328125 300.167969 283.457031 301.699219 C 281.589844 303.234375 279.683594 304.722656 277.742188 306.160156 C 275.796875 307.601562 273.824219 308.996094 271.8125 310.335938 C 269.800781 311.679688 267.757812 312.972656 265.683594 314.21875 C 263.609375 315.460938 261.507812 316.652344 259.375 317.792969 C 257.242188 318.933594 255.082031 320.019531 252.898438 321.050781 C 250.710938 322.085938 248.5 323.066406 246.269531 323.992188 C 244.035156 324.917969 241.777344 325.785156 239.5 326.601562 C 237.226562 327.414062 234.929688 328.175781 232.617188 328.875 C 230.300781 329.578125 227.972656 330.222656 225.625 330.808594 C 223.28125 331.398438 220.921875 331.925781 218.550781 332.398438 C 216.179688 332.871094 213.796875 333.285156 211.40625 333.640625 C 209.015625 333.992188 206.613281 334.289062 204.207031 334.527344 C 201.800781 334.761719 199.390625 334.941406 196.976562 335.058594 C 194.5625 335.179688 192.144531 335.238281 189.726562 335.238281 C 187.308594 335.238281 184.890625 335.179688 182.476562 335.058594 C 180.0625 334.941406 177.652344 334.761719 175.246094 334.527344 C 172.835938 334.289062 170.4375 333.992188 168.046875 333.640625 C 165.65625 333.285156 163.273438 332.871094 160.902344 332.398438 C 158.53125 331.925781 156.171875 331.398438 153.824219 330.808594 C 151.480469 330.222656 149.152344 329.578125 146.835938 328.875 C 144.523438 328.175781 142.226562 327.414062 139.949219 326.601562 C 137.675781 325.785156 135.417969 324.917969 133.183594 323.992188 C 130.949219 323.066406 128.742188 322.085938 126.554688 321.050781 C 124.371094 320.019531 122.210938 318.933594 120.078125 317.792969 C 117.945312 316.652344 115.839844 315.460938 113.769531 314.21875 C 111.695312 312.972656 109.652344 311.679688 107.640625 310.335938 C 105.628906 308.996094 103.652344 307.601562 101.710938 306.160156 C 99.769531 304.722656 97.863281 303.234375 95.996094 301.699219 C 94.125 300.167969 92.296875 298.585938 90.503906 296.964844 C 88.710938 295.339844 86.960938 293.671875 85.25 291.964844 C 83.542969 290.253906 81.875 288.503906 80.25 286.710938 C 78.625 284.917969 77.046875 283.089844 75.515625 281.21875 C 73.980469 279.351562 72.492188 277.445312 71.050781 275.503906 C 69.613281 273.558594 68.21875 271.585938 66.875 269.574219 C 65.535156 267.5625 64.238281 265.519531 62.996094 263.445312 C 61.753906 261.371094 60.5625 259.269531 59.421875 257.136719 C 58.28125 255.003906 57.195312 252.84375 56.160156 250.660156 C 55.128906 248.472656 54.148438 246.261719 53.222656 244.03125 C 52.296875 241.796875 51.429688 239.539062 50.613281 237.261719 C 49.796875 234.988281 49.039062 232.691406 48.339844 230.378906 C 47.636719 228.0625 46.992188 225.734375 46.402344 223.386719 C 45.816406 221.042969 45.285156 218.683594 44.816406 216.3125 C 44.34375 213.941406 43.929688 211.558594 43.574219 209.167969 C 43.21875 206.777344 42.925781 204.375 42.6875 201.96875 C 42.449219 199.5625 42.273438 197.152344 42.15625 194.738281 C 42.035156 192.324219 41.976562 189.90625 41.976562 187.488281 C 41.976562 185.070312 42.035156 182.652344 42.15625 180.238281 C 42.273438 177.824219 42.449219 175.414062 42.6875 173.007812 C 42.925781 170.601562 43.21875 168.199219 43.574219 165.808594 C 43.929688 163.417969 44.34375 161.035156 44.816406 158.664062 C 45.285156 156.292969 45.816406 153.933594 46.402344 151.585938 C 46.992188 149.242188 47.636719 146.914062 48.339844 144.597656 C 49.039062 142.285156 49.796875 139.988281 50.613281 137.710938 C 51.429688 135.4375 52.296875 133.179688 53.222656 130.945312 C 54.148438 128.710938 55.128906 126.503906 56.160156 124.316406 C 57.195312 122.132812 58.28125 119.972656 59.421875 117.839844 C 60.5625 115.707031 61.753906 113.601562 62.996094 111.53125 C 64.238281 109.457031 65.535156 107.414062 66.875 105.402344 C 68.21875 103.390625 69.613281 101.414062 71.050781 99.472656 C 72.492188 97.53125 73.980469 95.625 75.515625 93.757812 C 77.046875 91.886719 78.625 90.058594 80.25 88.265625 C 81.875 86.472656 83.542969 84.722656 85.25 83.011719 C 86.960938 81.304688 88.710938 79.636719 90.503906 78.011719 C 92.296875 76.390625 94.125 74.808594 95.996094 73.277344 C 97.863281 71.742188 99.769531 70.253906 101.710938 68.8125 C 103.652344 67.375 105.628906 65.980469 107.640625 64.636719 C 109.652344 63.296875 111.695312 62 113.769531 60.757812 C 115.839844 59.515625 117.945312 58.324219 120.078125 57.183594 C 122.210938 56.042969 124.371094 54.957031 126.554688 53.921875 C 128.742188 52.890625 130.949219 51.910156 133.183594 50.984375 C 135.417969 50.058594 137.675781 49.191406 139.949219 48.375 C 142.226562 47.558594 144.523438 46.800781 146.835938 46.101562 C 149.152344 45.398438 151.480469 44.753906 153.824219 44.167969 C 156.171875 43.578125 158.53125 43.050781 160.902344 42.578125 C 163.273438 42.105469 165.65625 41.691406 168.046875 41.335938 C 170.4375 40.984375 172.835938 40.6875 175.246094 40.449219 C 177.652344 40.210938 180.0625 40.035156 182.476562 39.917969 C 184.890625 39.796875 187.308594 39.738281 189.726562 39.738281 C 192.144531 39.738281 194.5625 39.796875 196.976562 39.917969 C 199.390625 40.035156 201.800781 40.210938 204.207031 40.449219 C 206.613281 40.6875 209.015625 40.984375 211.40625 41.335938 C 213.796875 41.691406 216.179688 42.105469 218.550781 42.578125 C 220.921875 43.050781 223.28125 43.578125 225.625 44.167969 C 227.972656 44.753906 230.300781 45.398438 232.617188 46.101562 C 234.929688 46.800781 237.226562 47.558594 239.5 48.375 C 241.777344 49.191406 244.035156 50.058594 246.269531 50.984375 C 248.5 51.910156 250.710938 52.890625 252.898438 53.921875 C 255.082031 54.957031 257.242188 56.042969 259.375 57.183594 C 261.507812 58.324219 263.609375 59.515625 265.683594 60.757812 C 267.757812 62 269.800781 63.296875 271.8125 64.636719 C 273.824219 65.980469 275.796875 67.375 277.742188 68.8125 C 279.683594 70.253906 281.589844 71.742188 283.457031 73.277344 C 285.328125 74.808594 287.15625 76.390625 288.949219 78.011719 C 290.742188 79.636719 292.492188 81.304688 294.203125 83.011719 C 295.910156 84.722656 297.578125 86.472656 299.203125 88.265625 C 300.824219 90.058594 302.40625 91.886719 303.9375 93.757812 C 305.472656 95.625 306.960938 97.53125 308.398438 99.472656 C 309.839844 101.414062 311.234375 103.390625 312.574219 105.402344 C 313.917969 107.414062 315.210938 109.457031 316.457031 111.53125 C 317.699219 113.601562 318.890625 115.707031 320.03125 117.839844 C 321.171875 119.972656 322.257812 122.132812 323.289062 124.316406 C 324.324219 126.503906 325.304688 128.710938 326.230469 130.945312 C 327.15625 133.179688 328.023438 135.4375 328.839844 137.710938 C 329.652344 139.988281 330.414062 142.285156 331.113281 144.597656 C 331.816406 146.914062 332.460938 149.242188 333.046875 151.585938 C 333.636719 153.933594 334.164062 156.292969 334.636719 158.664062 C 335.109375 161.035156 335.523438 163.417969 335.878906 165.808594 C 336.230469 168.199219 336.527344 170.601562 336.765625 173.007812 C 337 175.414062 337.179688 177.824219 337.296875 180.238281 C 337.417969 182.652344 337.476562 185.070312 337.476562 187.488281 Z M 337.476562 187.488281 " fill-opacity="1" fill-rule="nonzero"/></g><path fill="#cb6ce6" d="M 290.933594 203.445312 C 287.980469 203.445312 285.765625 200.933594 285.765625 197.976562 L 285.765625 178.476562 C 285.765625 175.519531 287.980469 173.007812 290.933594 173.007812 C 293.890625 173.007812 296.105469 175.519531 296.105469 178.476562 L 296.105469 198.125 C 296.105469 201.082031 293.890625 203.445312 290.933594 203.445312 Z M 290.933594 203.445312 " fill-opacity="1" fill-rule="nonzero"/><path fill="#cb6ce6" d="M 101.816406 203.445312 C 98.859375 203.445312 96.644531 200.933594 96.644531 197.976562 L 96.644531 178.476562 C 96.644531 175.519531 98.859375 173.007812 101.816406 173.007812 C 104.769531 173.007812 106.984375 175.519531 106.984375 178.476562 L 106.984375 198.125 C 106.984375 201.082031 104.769531 203.445312 101.816406 203.445312 Z M 101.816406 203.445312 " fill-opacity="1" fill-rule="nonzero"/><path fill="#cb6ce6" d="M 143.183594 265.648438 C 140.082031 265.648438 138.015625 262.691406 138.015625 259.148438 L 138.015625 117.308594 C 138.015625 113.761719 140.082031 110.804688 143.183594 110.804688 C 146.289062 110.804688 148.355469 113.761719 148.355469 117.308594 L 148.355469 259.292969 C 148.355469 262.839844 146.140625 265.648438 143.183594 265.648438 Z M 143.183594 265.648438 " fill-opacity="1" fill-rule="nonzero"/><path fill="#cb6ce6" d="M 121.023438 230.925781 C 117.917969 230.925781 115.851562 228.414062 115.851562 225.460938 L 115.851562 151.140625 C 115.851562 148.039062 117.917969 145.675781 121.023438 145.675781 C 124.125 145.675781 126.195312 148.1875 126.195312 151.140625 L 126.195312 225.460938 C 126.195312 228.414062 123.976562 230.925781 121.023438 230.925781 Z M 121.023438 230.925781 " fill-opacity="1" fill-rule="nonzero"/><path fill="#cb6ce6" d="M 164.609375 230.925781 C 161.507812 230.925781 158.699219 228.414062 158.699219 225.460938 L 158.699219 151.140625 C 158.699219 148.039062 161.507812 145.675781 164.609375 145.675781 C 167.710938 145.675781 170.519531 148.1875 170.519531 151.140625 L 170.519531 225.460938 C 170.519531 228.414062 167.5625 230.925781 164.609375 230.925781 Z M 164.609375 230.925781 " fill-opacity="1" fill-rule="nonzero"/><path fill="#cb6ce6" d="M 205.980469 230.925781 C 202.875 230.925781 200.070312 228.414062 200.070312 225.460938 L 200.070312 151.140625 C 200.070312 148.039062 202.875 145.675781 205.980469 145.675781 C 209.082031 145.675781 211.890625 148.1875 211.890625 151.140625 L 211.890625 225.460938 C 211.890625 228.414062 208.933594 230.925781 205.980469 230.925781 Z M 205.980469 230.925781 " fill-opacity="1" fill-rule="nonzero"/><path fill="#cb6ce6" d="M 249.566406 230.925781 C 246.460938 230.925781 244.394531 228.414062 244.394531 225.460938 L 244.394531 151.140625 C 244.394531 148.039062 246.460938 145.675781 249.566406 145.675781 C 252.667969 145.675781 254.734375 148.1875 254.734375 151.140625 L 254.734375 225.460938 C 254.734375 228.414062 252.519531 230.925781 249.566406 230.925781 Z M 249.566406 230.925781 " fill-opacity="1" fill-rule="nonzero"/><path fill="#cb6ce6" d="M 228.140625 211.570312 C 225.039062 211.570312 222.230469 209.058594 222.230469 206.105469 L 222.230469 170.347656 C 222.230469 167.246094 225.039062 164.882812 228.140625 164.882812 C 231.242188 164.882812 234.050781 167.394531 234.050781 170.347656 L 234.050781 206.105469 C 234.050781 209.207031 231.097656 211.570312 228.140625 211.570312 Z M 228.140625 211.570312 " fill-opacity="1" fill-rule="nonzero"/><path fill="#cb6ce6" d="M 271.726562 211.421875 C 268.625 211.421875 266.554688 208.910156 266.554688 205.957031 L 266.554688 170.054688 C 266.554688 166.949219 268.625 164.585938 271.726562 164.585938 C 274.832031 164.585938 276.898438 167.097656 276.898438 170.054688 L 276.898438 205.808594 C 276.898438 208.910156 274.683594 211.421875 271.726562 211.421875 Z M 271.726562 211.421875 " fill-opacity="1" fill-rule="nonzero"/><path fill="#cb6ce6" d="M 186.03125 211.570312 C 182.929688 211.570312 180.859375 209.058594 180.859375 206.105469 L 180.859375 170.347656 C 180.859375 167.246094 182.929688 164.882812 186.03125 164.882812 C 189.136719 164.882812 191.203125 167.394531 191.203125 170.347656 L 191.203125 206.105469 C 191.203125 209.207031 188.988281 211.570312 186.03125 211.570312 Z M 186.03125 211.570312 " fill-opacity="1" fill-rule="nonzero"/></svg>